<?xml version="1.0" encoding="UTF-8"?>
<svg version="1.1" viewBox="0 0 512 512" xmlns="http://www.w3.org/2000/svg">
<g fill="#fff">
<path class="b21b8e12-7f11-4cde-b752-f86062c63887" d="m234.82 129.4c-8.1436 0.3478-17.844 4.9761-24.027 10.139-24.007 1.7327-44.575 17.205-51.51 40.811-1.8359 13.882 13.057 7.6668 21.041 8.002 13.404 0.1404 26.242 3.7547 37.084 12.312 0 0.088 8.9e-4 0.08789 0.08789 0.08789 15.403 14.843 15.432 41.491 0 56.277a129 129 0 0 0-37.961 91.627c0.03229 2.673 0.11647 5.2492 0.24414 7.748h3.5234v20.16h9.2949v-20.16h2.6777c-2.4896-20.144 1.593-40.736 17.799-67.352l12.312-17.34c6.2214-8.6985 22.413-24 27.488-8.1836 2.9456 17.581 3.9886 39.822 13.82 56.189a186.95 186.95 0 0 1 10.152 18.648c2.6434 5.5107 4.9586 11.663 7.0938 18.037h22.334v10.855c1.6997-2.8624 3.9872-5.3324 6.7207-7.2363l0.00586-0.0039 0.00586-0.00391c2.7828-1.9211 5.8991-3.3099 9.1875-4.0976 3.1518-0.78398 6.3869-1.1854 9.6348-1.1934h0.01758 0.01757c4.5032 0.03565 8.9628 0.88106 13.168 2.4922 4.1501 1.525 7.97 3.8168 11.277 6.7441v-6.9746c-6.8563-40.538-19.178-90.418-16.604-128.1 0-31.832-0.78776-37.9-22.881-60.85-22.03-22.898-50.405-38.435-82.006-38.641zm-32.482 20.496c0.87041 0.00985 1.6535 0.17701 2.3301 0.52149 12.844 6.6164 7.95 25.998 6.498 30.586a0.9 0.9 0 0 1-1.2012 0.57422c-5.779-2.3775-27.473-3.8102-30.779-2.8965-22.303 6.0293 10.096-28.933 23.152-28.785zm41.373 5.041c9.5073 0.0299 9.5237 14.506 0 14.596-9.3982-0.1032-9.3838-14.55 0-14.596zm112.6 215.28-11.486 11.719c1.1332 0.61958 2.2368 1.2934 3.2891 2.0469h0.00195c2.344 1.6771 4.333 3.8023 5.8516 6.252l0.02734 0.04492 0.02539 0.04492c1.6709 2.8826 2.4913 6.1748 2.3926 9.5039 2e-3 0.11479-0.00443 0.22904-0.00391 0.34375l3.1582-3.7168c-0.00897-6.1271-0.16111-11.784-0.31055-16.5h-2.9453v-9.7383zm-64.65 10.074v4.5c3.6795 17.074 5.9285 33.914 6.9316 46.613 0.8262 8.9803-42.625 5.1974-50.123 2.7754-9.0141-1.5325-16.549-5.6557-22.889-11.301h-1.8203v-1.6934c-1.419-1.3805-2.7936-2.8128-4.0859-4.3379v6.0312h-16.121c4.173 5.6398 8.7599 11.344 13.943 17.494 0.6526 0.4988 1.4146 1.6167 0.26758 2.082-27.984 15.15-36.116 38.086 4.9062 38.543h86.617c15.608 0.5496 15.147-13.041 18.43-24.814 4.0013-4.1827 8.0262-5.8749 11.891 0.05859 10.02 7.8412 19.212 9.8672 34.115 9.8066 9.5668-0.0145 9.4588-14.6 0-14.598-16.082 1.2332-18.499-12.601-16.146-28.572h-2.1914v-15.785c-0.38931 1.2606-0.88215 2.491-1.4883 3.6738l-0.00976 0.02149-0.01172 0.01953c-1.6096 3.0432-3.862 5.7003-6.6016 7.7852l-0.00586 0.00391-0.00391 0.00391c-2.694 2.0354-5.7361 3.5632-8.9766 4.5117l-0.00586 0.00196c-3.2068 0.95699-6.5362 1.444-9.8828 1.4434-2.5873 0.00207-5.1698-0.22679-7.7168-0.68164-2.4982-0.44651-4.9506-1.1182-7.3281-2.0059-2.2765-0.84803-4.4832-1.8747-6.5957-3.0742l0.00781 0.00195c-2.0374-1.151-3.9516-2.5078-5.7109-4.0508l-2.6953-2.3633 15.102-16.408c-1.5352-0.90015-2.9995-1.9157-4.3008-3.1348l-0.00782-0.00586-0.00781-0.00781c-1.7825-1.6908-3.2095-3.7212-4.1973-5.9707l-0.01368-0.03126-0.01367-0.03124c-0.86127-2.0718-1.3512-4.2716-1.4805-6.5039h-11.779zm-101.94 19.992c0.92192 1.9926 1.921 3.9391 2.9629 5.8652v-5.8652h-2.9629z"/>
<path class="b21b8e12-7f11-4cde-b752-f86062c63887" d="m229.54 31a6.2645 6.2645 0 0 0-6.2402 6.2422v40.523a180.13 180.13 0 0 0-27.246 7.209l-20.303-35.25a6.2453 6.2453 0 0 0-8.5254-2.1973l-46.67 26.898a6.2945 6.2945 0 0 0-2.2852 8.5273l20.303 35.076a177.33 177.33 0 0 0-19.951 19.865l-35.244-20.307a6.1951 6.1951 0 0 0-8.5254 2.2852l-26.982 46.68a6.3758 6.3758 0 0 0 2.2852 8.5254l35.068 20.221a174.23 174.23 0 0 0-7.3828 27.162h-40.605a6.2647 6.2647 0 0 0-6.2402 6.2402v53.889a6.265 6.265 0 0 0 6.2402 6.2402h40.43a177.52 177.52 0 0 0 7.207 27.252l-35.156 20.307a6.1163 6.1163 0 0 0-2.2852 8.4375l26.982 46.768a6.1623 6.1623 0 0 0 8.4375 2.1992l35.068-20.133a193.58 193.58 0 0 0 19.863 19.955l-20.215 35.076a6.1964 6.1964 0 0 0 2.2852 8.5254l46.67 26.988a6.3742 6.3742 0 0 0 8.5254-2.2852l18.809-24.703c-3.876-5.9264-7.3421-11.356-10.477-16.84v2.5039h-26.99v-66.473h6.1543c-12.739-12.744-27.403-29.788-34.342-46.305a138.55 138.55 0 0 1 29.707-152.08 140.23 140.23 0 0 1 44.121-29.801 138.85 138.85 0 0 1 181.85 181.88c-6.592 16.966-10.547 23.999-17.842 34.723l1.6445 11.582h43.086v19.23l-4.8809 5.7637 22.816 13.18a6.373 6.373 0 0 0 8.5254-2.2852l26.895-46.678a6.1973 6.1973 0 0 0-2.2852-8.5273l-34.98-20.219a168.25 168.25 0 0 0 7.2949-27.252h40.605a6.2475 6.2475 0 0 0 6.2402-6.1523v-53.975a6.2652 6.2652 0 0 0-6.2402-6.2422h-40.43a200.3 200.3 0 0 0-7.207-27.25l35.156-20.307a6.1155 6.1155 0 0 0 2.2852-8.4394l-26.982-46.768a6.2669 6.2669 0 0 0-8.4375-2.2852l-35.156 20.307a192.73 192.73 0 0 0-19.775-19.955l20.303-35.25a6.2179 6.2179 0 0 0-2.2852-8.5273l-46.67-26.898a6.2158 6.2158 0 0 0-8.5254 2.2852l-20.215 35.074a167.12 167.12 0 0 0-27.158-7.2969v-40.699a6.2645 6.2645 0 0 0-6.2402-6.2422h-53.877zm141.48 348.96 0.36523 2.5781 2.1895-2.5781h-2.5547z"/>
<path d="m163.39 363.41v52.473h12.99v-22.596h23.297v22.596h12.992v-52.473h-13.076v20.16h-23.295v-20.16z" color="#000000"/>
<path d="m230.76 363.41v52.473h13.16v-52.473z" color="#000000"/>
<path d="m257.05 363.41v9.8848h14.615v42.588h12.992v-42.588h14.615v-9.8848z" color="#000000"/>
<path d="m331.83 361.73c-2.6857 8e-3 -5.3609 0.33845-7.9668 0.98828l-0.0156 4e-3 -0.0176 4e-3c-2.4468 0.58515-4.7627 1.6171-6.834 3.0449-2e-3 1e-3 -2e-3 3e-3 -4e-3 4e-3 -1.9544 1.3622-3.5848 3.1375-4.7812 5.1973-1.2737 2.3245-1.9065 4.946-1.8242 7.5957l4e-3 0.0996-4e-3 0.0996c-0.0472 1.8146 0.28987 3.6185 0.98047 5.2969 0.61123 1.3841 1.4892 2.6353 2.5859 3.6777 1.2108 1.1328 2.5787 2.0843 4.0644 2.8203l8e-3 2e-3 6e-3 4e-3c1.7171 0.85886 3.4927 1.5932 5.3145 2.1992 2.09 0.68112 3.8348 1.2804 5.2637 1.8047 1.2246 0.43289 2.4179 0.94751 3.5762 1.5352 1.0249 0.49128 1.9463 1.1727 2.709 2.0156l0.0977 0.10937 0.0879 0.11524c0.76374 0.99988 1.1513 2.2273 1.1543 3.4824 0.0956 2.3893-1.3238 4.6153-3.5547 5.5-1.3964 0.57317-2.8929 0.86555-4.4023 0.84765-3.0339-0.0134-6.02-0.7475-8.7168-2.1367-1.3221-0.63943-2.562-1.4216-3.7344-2.2969l-7.2109 7.834c0.54244 0.36038 1.0241 0.8082 1.5918 1.1289l2e-3 2e-3 4e-3 2e-3c1.7888 1.0156 3.6564 1.8856 5.584 2.6035l2e-3 2e-3c1.9827 0.74029 4.028 1.2995 6.1113 1.6719 2.139 0.38199 4.3076 0.57427 6.4805 0.57227h4e-3c2.6753 7.8e-4 5.3373-0.38956 7.9004-1.1562l0.01-2e-3 0.01-4e-3c2.4274-0.70994 4.7045-1.8548 6.7226-3.3789 1.9213-1.4637 3.5023-3.3277 4.6348-5.4609 1.2109-2.3708 1.8137-5.0044 1.75-7.666l-2e-3 -0.10547 4e-3 -0.10352c0.0721-2.0357-0.4341-4.047-1.4492-5.8125-1.0272-1.6405-2.361-3.0669-3.9355-4.1934v-2e-3h-2e-3c-1.7631-1.2627-3.6827-2.2909-5.7109-3.0586h-4e-3l-2e-3 -2e-3c-2.2843-0.86984-4.4488-1.6268-6.4942-2.2734-1.6319-0.49648-3.23-1.0992-4.7891-1.791-2.215-0.89341-3.5506-3.1226-3.5723-5.2246-0.0217-2.1089 1.2731-4.3792 3.4824-5.3125l0.0234-8e-3c1.5834-0.65601 3.2893-0.96103 5.002-0.89453 2.2946 0.0814 4.5446 0.63751 6.6172 1.625 1.2297 0.54552 2.381 1.2367 3.4355 2.0566l7.2207-7.3672c-2.0666-1.4716-4.2525-2.7653-6.6445-3.6426l-0.0508-0.02c-3.4232-1.3147-7.054-2.0016-10.721-2.0332z" color="#000000"/>
<path d="m363.31 363.41v9.5488h25.4l-26.326 30.992v11.932h42.057v-10.053h-28.41l27.738-32.756v-9.6641z" color="#000000"/>
</g>
</svg>
