<?xml version="1.0" encoding="UTF-8"?>
<svg version="1.1" viewBox="0 0 512 512" xmlns="http://www.w3.org/2000/svg">
<path class="a" d="m297.85 0.0042581-0.48024 0.0044-0.48025 0.0262c-15.247 0.826-28.109 7.0446-38.828 14.831-24.695 3.5603-47.077 16.028-62.425 35.189h-78.548c-9.547-0.10797-19.075 0.90304-28.387 3.0124-16.168 3.8526-30.782 11.93-43.46 22.53-6.2069 5.4016-11.767 11.503-16.571 18.184-4.0597 5.4059-7.4682 11.272-10.153 17.477-3.4912 7.5832-6.0598 15.557-7.649 23.752-1.2106 6.5764-1.8621 13.244-1.9494 19.93-0.01397 6.6424 0 13.286 0 19.928v232.06c0.09636 6.5653 0.72318 13.112 1.873 19.576 3.4176 18.376 11.712 35.495 24.014 49.566 20.173 23.159 49.498 36.292 80.209 35.92h159.87c3.9489 0 7.8979 0.0147 11.847 0 0.16945-6.4e-4 0.33917-1e-5 0.50862 0h2e-3c0.36221-0.0405 0.72325-0.0906 1.0827-0.15063l2e-3 0.1092c38.615-0.39514 77.231-0.90811 115.85-1.3774l-0.64396-4e-3c14.808 0.30886 29.711-8.9855 35.331-19.391 2.3893-4.4242 3.7554-8.4882 4.7697-12.275 10.789 4.5327 21.446 5.4564 31.364 4.7086 5.9668-0.44987 11.404 0.0501 19.828-6.8173 4.2118-3.4337 9.2039-12.025 8.1118-20.109-1.0922-8.0845-5.3436-12.321-8.5724-15.13l0.23139 0.20301c-6.652-5.9739-7.495-8.0654-8.1118-10.93-0.61671-2.8645-0.38101-9.0976 1.6175-20.402l-0.0742 0.40385c2.0075-10.114 2.0064-21.09 1.8882-32.539-0.11769-11.399-0.65454-22.604-0.9714-29.624-0.0408-1.0871-0.13696-2.1712-0.29033-3.2482-4.7589-33.546-21.679-74.196-35.852-114.6s-24.507-80.578-21.399-101v-0.0112l2e-3 -0.0112c7.1449-47.293-11.684-75.944-27.528-91.139-31.968-30.651-61.971-38.88-106.02-38.66zm-37.762 14.499c-0.0546 0.0067-0.10696 0.02155-0.16154 0.02838 0.0118-0.0016 0.0209-0.01156 0.0327-0.0131zm38.758 24.623c40.152-0.17164 50.966 1.9006 77.95 27.773 12.521 12.008 21.567 19.703 15.924 57.06l4e-3 -0.0197c-5.5881 36.718 8.5942 78.309 23.159 119.83 14.513 41.372 30.474 82.631 33.984 106.87 0.32129 7.115 0.82093 17.712 0.92773 28.059 0.10808 10.471-0.48917 21.231-1.1417 24.519l-0.0393 0.20084-0.0371 0.20083c-1.9474 11.014-3.3682 20.908-1.8751 31.46-1.9164-0.89851-3.9338-1.6592-6.1449-2.0607-7.3048-1.3265-14.125 0.96131-18.478 3.5101l-0.1659 0.0982-0.16591 0.10037c-7.4601 4.5679-12.726 12.026-14.534 20.585l0.0392-0.18336c-1.7383 7.855-3.0036 12.953-3.5516 14.399-0.17539-0.0124-0.14038-0.0609-0.35801-0.0655l-0.32307-7e-3c-49.055-0.11564-116.78 1.4211-116.78 1.4211h-2e-3c-4.0872-0.0173-8.1704-0.26006-12.231-0.72693-1.0998-0.16472-2.194-0.36491-3.2809-0.60029 2.0802-2.2758 4.319-4.4014 6.6994-6.361 2.3917-1.7983 4.86-3.4923 7.3979-5.0775 2.9498-1.8016 6.4606-3.3498 8.8081-5.8983 1.1873-1.2966 2.2636-2.6905 3.2176-4.1672l1.9712-4.6715c0.36426-0.89452 0.51378-1.862 0.43658-2.8247 0.19162-0.97579 0.31055-1.9645 0.35582-2.9579-0.13544-1.8297-0.38772-3.6489-0.75529-5.4464-0.85753-3.658-2.971-6.4722-5.346-9.2382-1.4514-1.4381-3.0443-2.726-4.7544-3.8441l3.9577 3.0583c-3.2756-3.7867-6.5067-7.6117-9.6988-11.469-0.69016-1.0893-1.5144-2.0924-2.4733-2.971-1.2651-1.5544-2.4987-3.1348-3.7394-4.7086-0.0772-0.1017-0.14774-0.20812-0.22484-0.30998 0.6056-0.0335 1.2102-0.0769 1.814-0.14189 4.8505-0.54214 9.5554-1.1368 14.078-3.0059 3.1494-1.1865 6.2092-2.6015 9.153-4.2327 2.8198-1.7895 5.5202-3.7616 8.0834-5.9026 2.6763-2.1277 5.0915-4.565 7.1949-7.2604 3.2389-3.8326 6.0298-8.0212 8.3191-12.486 2.0607-4.0762 3.6708-8.3653 4.8046-12.79 0.58501-2.8481 1.0099-5.7248 1.2726-8.6204 0.12517-1.1458 0.1816-2.2986 0.16809-3.4512-0.0161-1.102-0.0915-2.2022-0.22484-3.2962-0.33038-2.7726-0.64234-5.5904-1.2312-8.3301-1.2272-4.9455-2.8651-9.7788-4.8985-14.451-2.5544-6.4085-5.0605-12.829-7.1404-19.411-2.577-8.144-4.5786-16.459-5.9899-24.883-0.14749-0.88274-0.26728-1.7697-0.40167-2.6544-0.93143-7.9927-1.4943-16.025-1.6481-24.071-0.21641-7.8035-0.42903-15.537-1.862-23.244-0.20157-1.1213-0.47875-2.2269-0.82733-3.3115-1.1152-3.0853-2.3504-6.0477-3.9053-8.6378-1.6607-2.2702-3.0788-4.2658-4.9203-5.9987-1.6048-1.3926-3.292-2.6876-5.0513-3.8791-0.71222-0.41561-1.457-0.76705-2.1938-1.1351 0.75797-0.83135 1.5434-1.6386 2.2462-2.5169 3.1293-3.6986 5.893-7.6902 8.2536-11.921 2.2546-4.2899 4.1188-8.776 5.5665-13.401 1.3272-4.7148 2.2289-9.5401 2.6937-14.416 0.43066-3.4395 0.54703-6.9103 0.35146-10.371-0.26987-4.8965-0.95356-9.7618-2.0454-14.543-1.217-4.6887-2.8594-9.2567-4.905-13.648-1.5005-3.4942-3.3789-6.8132-5.6036-9.8974-1.9831-2.797-4.1141-5.4839-6.3851-8.0528-1.221-1.3119-2.3468-2.5027-3.7-3.5211-2.537-2.0015-5.0536-3.9269-7.5508-5.5796-2.0673-1.3642-4.203-2.6206-6.3982-3.7677-5.7205-3.0033-11.712-5.462-17.893-7.3412-6.2662-1.7403-12.668-2.9467-19.138-3.6084-4.4907-0.59548-11.011-0.68808-15.54-0.58284 9.0528-14.645 24.608-24.733 42.755-26.972l0.131-0.0174c5.5534-0.72302 10.818-2.9025 15.256-6.3174l-0.15935 0.12224c5.3373-4.0194 14.784-7.7069 18.738-7.9873zm-179.66 50.046h58.489c-0.64317 3.919 0.023 8.1614 0.86006 11.609 1.7285 6.4252 5.8116 11.964 11.436 15.518 0.47429 0.34274 0.97342 0.64779 1.4953 0.91246 5.3023 2.6758 11.199 3.9594 17.134 3.7263 3.7186-0.13669 7.4126-0.68387 11.1-1.2377 5.1756-0.52944 10.385-0.51133 15.556 0.0306 5.6939 0.89479 11.273 2.3797 16.66 4.427 3.7457 1.7579 7.3434 3.8064 10.751 6.1515 0.85141 0.84 1.6759 1.7053 2.4667 2.602 1.6726 2.3639 3.1273 4.8618 4.3877 7.4678 1.0432 2.8746 1.8437 5.82 2.4056 8.8256 0.28104 3.277 0.27885 6.5593-2e-3 9.8363-0.55898 2.9793-1.355 5.8986-2.3925 8.747-1.2201 2.5063-2.6232 4.9099-4.2305 7.1884-3.5991 4.1991-7.6201 8.0634-11.179 12.301-5.7248 6.7592-11.031 13.86-15.89 21.266-8.9393 13.915-16.054 28.922-21.17 44.65-2.6838 8.1727-4.7662 16.529-6.2322 25.005-0.48028 1.4922-0.68949 3.0452-0.68326 4.5994-1.9458 12.777-2.7531 25.704-2.2702 38.627 0.53025 12.057 1.9844 24.055 4.3506 35.889 5.8154 13.725 11.339 31.793 17.243 46.28l-138.64-1.2814-1.6983-0.0153-0.61777-7e-3 -27.963-0.25759-1.694-0.0153c-3.601-0.0333-10.805-0.13316-10.805-0.13316s-0.08105-168.8-0.01528-239.33c0.0023-2.5691-0.0059-5.1366 0-7.7057 0.0066-2.938 0.20272-5.8706 0.49771-8.7928 0.96296-5.7567 2.5053-11.393 4.606-16.839 2.3612-5.1155 5.2114-9.9837 8.5156-14.547 3.5717-4.335 7.5468-8.3142 11.882-11.886 4.5652-3.3058 9.4357-6.1559 14.554-8.5178 5.2676-2.0316 10.715-3.5399 16.276-4.5077 4.9257-0.4632 9.8703-0.69274 14.818-0.59158zm-4.0428 64.13c-2.617-0.11831-5.2182 0.46341-7.5355 1.6852-4.7838 1.7822-8.5573 5.5549-10.341 10.338-1.221 2.3175-1.802 4.9187-1.683 7.5355l0.69853 5.1997c0.90033 3.2643 2.6334 6.2386 5.0295 8.6313l3.9576 3.0583c2.9944 1.754 6.4031 2.6757 9.8734 2.6697l2.5846 0.024 7.0334 0.0655 10.465 0.096 26.632 0.24668 27.221 0.25322 11.074 0.10036 7.9655 0.0742c1.2602 0.0116 2.5206 0.0291 3.7808 0.0349 0.055 2.6e-4 0.10874 1e-3 0.16372 2e-3 5.1427-0.21345 10.043-2.243 13.831-5.728 1.8702-1.7133 3.2639-3.8825 4.045-6.2956 1.2211-2.3175 1.802-4.9187 1.683-7.5355l-0.69854-5.1997c-0.90033-3.2643-2.6334-6.2386-5.0295-8.6313l-3.9598-3.0583c-2.9937-1.7536-6.4017-2.6753-9.8712-2.6697l-2.5846-0.024-7.0334-0.0655-10.465-0.096-26.632-0.24667-38.295-0.35582-7.9655-0.0721c-1.2602-0.0116-2.5206-0.0291-3.7808-0.0349-0.055-2.6e-4 -0.10875-1e-3 -0.16372-2e-3zm0 74.158c-2.617-0.11833-5.2182 0.46339-7.5355 1.6852-4.7838 1.7822-8.5573 5.5549-10.341 10.338-1.221 2.3175-1.802 4.9187-1.683 7.5355l0.69853 5.1997c0.90033 3.2643 2.6335 6.2386 5.0295 8.6313l3.9576 3.0583c2.9944 1.754 6.4031 2.6757 9.8734 2.6697l6.2017 0.0568 14.964 0.1397 18.04 0.16591 15.599 0.14626c2.5363 0.0235 5.0733 0.0612 7.6097 0.0698h0.10473c2.6168 0.119 5.218-0.46197 7.5355-1.683 4.7835-1.7832 8.5562-5.5567 10.338-10.341 1.2218-2.3173 1.8035-4.9185 1.6852-7.5355l-0.69853-5.1997c-0.90068-3.2635-2.6338-6.237-5.0295-8.6291l-3.9598-3.0583c-2.9935-1.7544-6.4015-2.6768-9.8712-2.6719l-6.2017-0.0568-14.964-0.13752-18.04-0.16809-15.601-0.14408c-2.5363-0.0235-5.0711-0.0612-7.6075-0.0699zm156.39 12.962c0.18788 3.0789 0.28207 6.1634 0.28378 9.2491 0.20537 7.4052 0.5595 14.803 1.3883 22.168 1.1484 11.101 3.1559 22.099 6.003 32.89 2.3645 8.3575 5.1989 16.574 8.4894 24.612 2.1075 5.2847 4.418 10.637 5.597 16.234 0.0469 0.93165 0.0488 1.8644 9e-3 2.7963-0.30662 1.3856-0.69016 2.752-1.1548 4.093-0.98022 1.9966-2.1053 3.9174-3.3661 5.7498-1.2905 1.4826-2.6782 2.8782-4.1563 4.1738-1.2079 0.80986-2.4612 1.5487-3.7546 2.2135-1.1124 0.37184-2.2446 0.68428-3.3901 0.93648-1.3155 0.0693-2.6339 0.0679-3.9489-0.0112-1.754-0.36315-3.4816-0.84142-5.1735-1.4298-2.223-1.0815-4.3616-2.3243-6.396-3.7284-2.3491-1.9913-4.5306-4.1654-6.5248-6.5117-2.2261-3.1397-4.1576-6.4728-5.776-9.9651-0.11885-0.32264-0.22892-0.6492-0.36237-0.96485-0.30302-1.6777-0.63532-3.3494-0.8819-5.0382-1.2418-17.378-2.0859-34.297 0.13534-49.293 2.6172-12.353 6.1632-25.498 10.236-35.726 0.97993-2.2162 2.0567-4.384 3.126-6.5553zm-157.07 60.88c-2.6168-0.11899-5.218 0.46198-7.5355 1.683-4.783 1.7827-8.5557 5.5553-10.338 10.338-1.2222 2.3179-1.8039 4.9199-1.6852 7.5376l0.70071 5.1976c0.90033 3.2643 2.6334 6.2386 5.0295 8.6313l3.9576 3.0583c2.9935 1.7544 6.4015 2.6768 9.8712 2.6719l4.881 0.0437 11.725 0.10919 14.189 0.13098 12.277 0.11351c1.9952 0.0184 3.9904 0.051 5.9856 0.0568h0.0873c2.6177 0.1187 5.2197-0.46304 7.5376-1.6852 7.1305-3.1271 11.814-10.091 12.021-17.874l-0.69853-5.1997c-0.90033-3.2643-2.6334-6.2386-5.0295-8.6313l-3.9576-3.0583c-2.9944-1.754-6.4031-2.6757-9.8734-2.6697l-4.8788-0.0458-11.724-0.10696-14.189-0.13315-12.277-0.11351c-1.9952-0.0184-3.9903-0.0487-5.9856-0.0545zm-56.9 139.82 52.849 0.48898 68.614 0.63523h0.11788l32.126 0.29689 27.243 0.25321c2.1866 0.0202 4.376 0.0592 6.5641 0.0917-1.3346 1.294-2.6072 2.6503-3.8136 4.0646-2.6545 3.365-5.4409 6.7382-7.2364 10.668-1.2436 2.5246-2.2937 5.14-3.1412 7.8236-0.58713 2.4402-0.97119 4.9249-1.1482 7.4285h-111.67c-2.1913 0-4.3863 0.0277-6.5772-0.0284-2.0855-0.0893-4.1672-0.25313-6.241-0.49115-5.8606-0.95888-11.606-2.5222-17.145-4.6649-5.0839-2.3454-9.928-5.1791-14.464-8.461-4.3678-3.5929-8.3749-7.6029-11.965-11.973-1.4583-1.9844-2.8311-4.0302-4.1148-6.1318zm370.18 26.638c0.13971 0.17879 0.3217 0.31765 0.46497 0.49333-0.0255-0.0277-0.18698-0.14676-0.20083-0.16371z" fill="#fff" stroke-width="1.1177"/>
</svg>
